<svg id="Layer_1" data-name="Layer 1" xmlns="http://www.w3.org/2000/svg" width="135.75" height="39.1" viewBox="0 0 135.75 39.1"><defs><style>.cls-1{fill:#8361ff;}.cls-2{fill:#a58cff;}.cls-3{fill:#ccbcf5;}</style></defs><path class="cls-1" d="M45.65,39.5c.15,2.17-1.72,4.3-2.74,5A4.07,4.07,0,0,0,43.5,43c.62-2.49-.66-4.36-3.43-5.07s-5.16.93-7.57,2.39a78.61,78.61,0,0,1-7.36,6.2c-4.12,3-13.33.88-16.39-4.9C5.3,35.08,7.55,26,13.62,21.54c5.58-4.14,16.45-4.56,23-2-.58.51-1.24.19-1.9.13C28,19.06,22,19.72,17.2,24c-4.36,3.86-4.3,10.2-.57,13.42,2.4,2.08,2,4.14,6.87,2.53,3.21-.63,7.55-2.65,10.77-4C41.87,32.9,45.33,36,45.65,39.5Z" transform="translate(-7.13 -17.95)"/><path class="cls-2" d="M37.6,20a1,1,0,0,1-.94.43c-2.41-.12-4.93-.33-7.06.44a16.77,16.77,0,0,0-5.22,2.66c-3.42,2-6,4.86-6.25,9-.1,2,1,9.84,10.28,5.81-4.94,2.17-10.69,5.63-14.72-.19C10.84,34.05,12.87,27.86,17.2,24c5.11-4.6,12.76-5.53,19.4-4.4h0Z" transform="translate(-7.13 -17.95)"/><path class="cls-2" d="M43.15,44.33a14,14,0,0,1-5.31,2.58,18.59,18.59,0,0,0-6.15,2.78c-2.5,1.81-2.87,3.93-1.17,6.16a8.83,8.83,0,0,0,1.26,1.2c-4.19-1.41-4.64-5.56-2.75-7.74a13.56,13.56,0,0,1,4.48-3.24,28,28,0,0,0,5-2.8c.75-.65,1.7-2,.83-3.36s-2.75-1.24-4.13-.72a15.13,15.13,0,0,0-3.87,2.14,12.87,12.87,0,0,1,8.74-4.2,4.52,4.52,0,0,1,4.11,5.28A3.94,3.94,0,0,1,43.15,44.33Z" transform="translate(-7.13 -17.95)"/><path class="cls-3" d="M37.73,31c.93-2.24,1.88-5,.94-7-1.19-2.57-6.34-4-12.1-1.58a18.72,18.72,0,0,0-4.16,2.46,21.49,21.49,0,0,1,6.17-3.94,21.14,21.14,0,0,1,6.26-1.3c.5,0,.84-.05,1.77-.07C43.74,22.12,40.46,27.74,37.73,31Z" transform="translate(-7.13 -17.95)"/><path class="cls-1" d="M53.18,37.35c0-7.37,5.24-12.92,12.23-12.92a10.32,10.32,0,0,1,9.43,5.31.83.83,0,0,1-.29,1.1l-2.39,1.52A.84.84,0,0,1,71,32.05a6.35,6.35,0,0,0-5.83-3.62c-4.27,0-7,3.44-7,9,0,5.29,2.45,8.8,7.47,8.8a7.68,7.68,0,0,0,3.47-.71c1.33-.68,1.67-1.78,1.67-3.25V37.81a.83.83,0,0,1,.83-.84h2.94a.83.83,0,0,1,.83.84v8.31a.89.89,0,0,1-.22.58c-2.11,2.16-5.69,3.42-9.36,3.42C58.12,50.12,53.18,44.45,53.18,37.35Z" transform="translate(-7.13 -17.95)"/><path class="cls-1" d="M78.29,41.62A8.72,8.72,0,0,1,86.75,33c4.29,0,7.72,3.42,8,8.53a.7.7,0,0,1-.7.73H83.44a.7.7,0,0,0-.69.82,4.54,4.54,0,0,0,4.79,3.72,4.05,4.05,0,0,0,3.77-1.88.69.69,0,0,1,.92-.24l1.82,1a.7.7,0,0,1,.24,1,7.76,7.76,0,0,1-6.91,3.46C82.14,50.12,78.29,46.27,78.29,41.62Zm5.27-1.78h6.1a.69.69,0,0,0,.67-.87,3.76,3.76,0,0,0-3.69-3,3.92,3.92,0,0,0-3.74,3A.68.68,0,0,0,83.56,39.84Z" transform="translate(-7.13 -17.95)"/><path class="cls-1" d="M126.4,41.62A8.71,8.71,0,0,1,134.85,33c4.29,0,7.72,3.42,8,8.53a.69.69,0,0,1-.7.73H131.55a.69.69,0,0,0-.69.82,4.54,4.54,0,0,0,4.78,3.72,4.06,4.06,0,0,0,3.78-1.88.69.69,0,0,1,.92-.24l1.81,1a.69.69,0,0,1,.25,1,7.77,7.77,0,0,1-6.91,3.46C130.25,50.12,126.4,46.27,126.4,41.62Zm5.27-1.78h6.1a.69.69,0,0,0,.67-.87,3.76,3.76,0,0,0-3.69-3A3.92,3.92,0,0,0,131,39,.68.68,0,0,0,131.67,39.84Z" transform="translate(-7.13 -17.95)"/><path class="cls-1" d="M98.3,33.74a.35.35,0,0,1,.35-.35h1.09a10.52,10.52,0,0,0,2.43-.18.34.34,0,0,1,.43.34v1.33a.45.45,0,0,0,.81.28A6.63,6.63,0,0,1,108.57,33c3.47,0,5.62,2,5.62,6V49.38a.34.34,0,0,1-.35.35h-3.6a.35.35,0,0,1-.35-.35V39.8c0-2.27-.94-3.1-2.83-3.1-2.68,0-4.46,1.74-4.46,4.8v7.88a.34.34,0,0,1-.35.35h-3.6a.35.35,0,0,1-.35-.35Z" transform="translate(-7.13 -17.95)"/><path class="cls-1" d="M117.9,28a2.65,2.65,0,1,1,2.64,2.61A2.58,2.58,0,0,1,117.9,28Zm.5,5.93a.52.52,0,0,1,.52-.52h.91a12.06,12.06,0,0,0,2.25-.14.53.53,0,0,1,.62.52V49.23a.52.52,0,0,1-.52.52h-3.26a.52.52,0,0,1-.52-.52Z" transform="translate(-7.13 -17.95)"/></svg>