<svg id="Layer_1" data-name="Layer 1" xmlns="http://www.w3.org/2000/svg" width="166.35" height="47.91" viewBox="0 0 166.35 47.91"><defs><style>.cls-1{fill:#8361ff;}.cls-2{fill:#a58cff;}.cls-3{fill:#ccbcf5;}</style></defs><path class="cls-1" d="M60.21,54.36c.19,2.66-2.11,5.27-3.36,6.15a5.18,5.18,0,0,0,.73-1.89c.75-3-.81-5.34-4.21-6.21s-6.32,1.14-9.28,2.93a94.25,94.25,0,0,1-9,7.59C30,66.67,18.75,64,15,56.94c-4.23-8-1.47-19.07,6-24.59,6.84-5.07,20.16-5.59,28.16-2.42-.71.64-1.52.25-2.33.16-8.16-.77-15.58,0-21.45,5.24-5.33,4.73-5.26,12.5-.69,16.44,2.94,2.55,2.4,5.08,8.41,3.11C37,54.1,42.32,51.63,46.26,50,55.57,46.27,59.82,50.1,60.21,54.36Z" transform="translate(-13 -27.95)"/><path class="cls-2" d="M50.35,30.48a1.26,1.26,0,0,1-1.16.53c-2.95-.15-6-.41-8.65.53a20.68,20.68,0,0,0-6.4,3.27c-4.19,2.46-7.39,5.95-7.65,11-.12,2.5,1.2,12,12.59,7.12-6.06,2.65-13.1,6.89-18-.24-3.5-5.05-1-12.65,4.29-17.41,6.27-5.63,15.64-6.78,23.78-5.4h0C49.61,30.16,49.86,30.26,50.35,30.48Z" transform="translate(-13 -27.95)"/><path class="cls-2" d="M57.14,60.29a17.33,17.33,0,0,1-6.5,3.16,22.63,22.63,0,0,0-7.54,3.4c-3.06,2.22-3.52,4.81-1.43,7.55a11.22,11.22,0,0,0,1.54,1.47c-5.13-1.73-5.69-6.81-3.36-9.49a16.43,16.43,0,0,1,5.48-4A34.58,34.58,0,0,0,51.51,59c.92-.79,2.08-2.46,1-4.12s-3.37-1.51-5.06-.88a18.84,18.84,0,0,0-4.74,2.63c2.72-3.1,7.42-5.22,10.7-5.15a5.52,5.52,0,0,1,5,6.47A4.78,4.78,0,0,1,57.14,60.29Z" transform="translate(-13 -27.95)"/><path class="cls-3" d="M50.5,43.91c1.14-2.75,2.31-6.08,1.16-8.56-1.47-3.15-7.78-4.93-14.84-1.93-.71.3-1.5.54-5.08,3a25.84,25.84,0,0,1,7.55-4.83A26.27,26.27,0,0,1,47,30c.61,0,1-.06,2.17-.08C57.87,33.07,53.85,40,50.5,43.91Z" transform="translate(-13 -27.95)"/><path class="cls-1" d="M69.43,51.73c0-9,6.43-15.84,15-15.84A12.65,12.65,0,0,1,96,42.41a1,1,0,0,1-.36,1.34l-2.93,1.86a1,1,0,0,1-1.44-.37A7.76,7.76,0,0,0,84.1,40.8c-5.23,0-8.51,4.22-8.51,11,0,6.48,3,10.78,9.16,10.78A9.44,9.44,0,0,0,89,61.68c1.62-.84,2-2.18,2-4V52.29a1,1,0,0,1,1-1h3.6a1,1,0,0,1,1,1V62.48a1.06,1.06,0,0,1-.27.7c-2.59,2.65-7,4.2-11.47,4.2C75.5,67.38,69.43,60.43,69.43,51.73Z" transform="translate(-13 -27.95)"/><path class="cls-1" d="M100.21,57A10.67,10.67,0,0,1,110.57,46.4c5.26,0,9.46,4.18,9.83,10.45a.85.85,0,0,1-.86.89h-13a.86.86,0,0,0-.84,1,5.55,5.55,0,0,0,5.86,4.55,5,5,0,0,0,4.62-2.3.85.85,0,0,1,1.13-.29l2.22,1.21a.85.85,0,0,1,.31,1.21c-1.63,2.56-4.48,4.25-8.47,4.25C104.92,67.38,100.21,62.65,100.21,57Zm6.46-2.18h7.47a.86.86,0,0,0,.82-1.07A4.62,4.62,0,0,0,110.43,50a4.81,4.81,0,0,0-4.58,3.69A.84.84,0,0,0,106.67,54.78Z" transform="translate(-13 -27.95)"/><path class="cls-1" d="M159.16,57A10.67,10.67,0,0,1,169.52,46.4c5.26,0,9.46,4.18,9.83,10.45a.85.85,0,0,1-.86.89h-13a.86.86,0,0,0-.84,1,5.55,5.55,0,0,0,5.86,4.55,5,5,0,0,0,4.63-2.3.83.83,0,0,1,1.12-.29l2.22,1.21a.85.85,0,0,1,.31,1.21c-1.63,2.56-4.48,4.25-8.47,4.25C163.88,67.38,159.16,62.65,159.16,57Zm6.46-2.18h7.47a.86.86,0,0,0,.83-1.07A4.62,4.62,0,0,0,169.39,50a4.8,4.8,0,0,0-4.58,3.69A.83.83,0,0,0,165.62,54.78Z" transform="translate(-13 -27.95)"/><path class="cls-1" d="M124.73,47.3a.43.43,0,0,1,.43-.43h1.33a12.8,12.8,0,0,0,3-.22.43.43,0,0,1,.53.42V48.7a.56.56,0,0,0,1,.35,8.12,8.12,0,0,1,6.33-2.66c4.25,0,6.89,2.46,6.89,7.32V66.47a.44.44,0,0,1-.44.43h-4.41a.43.43,0,0,1-.43-.43V54.73c0-2.78-1.16-3.8-3.47-3.8-3.28,0-5.46,2.13-5.46,5.88v9.66a.43.43,0,0,1-.43.43h-4.41a.43.43,0,0,1-.43-.43Z" transform="translate(-13 -27.95)"/><path class="cls-1" d="M148.75,40.24a3.24,3.24,0,1,1,3.24,3.2A3.15,3.15,0,0,1,148.75,40.24Zm.61,7.27a.63.63,0,0,1,.63-.64h1.12a15.46,15.46,0,0,0,2.76-.16.64.64,0,0,1,.76.63V66.28a.64.64,0,0,1-.64.64h-4a.64.64,0,0,1-.63-.64Z" transform="translate(-13 -27.95)"/></svg>