<svg id="Layer_1" data-name="Layer 1" xmlns="http://www.w3.org/2000/svg" width="5.92in" height="2.33in" viewBox="0 0 426 168.03"><defs><style>.cls-1{fill:#8f7ced;}</style></defs><path class="cls-1" d="M267.74,174.41c-1,.63-2.54,1.69-4.56,3.14a43.38,43.38,0,0,1-7.89,4.28,73.23,73.23,0,0,1-11.5,3.7,64.53,64.53,0,0,1-15.2,1.62,56.55,56.55,0,0,1-20.52-3.52,44.36,44.36,0,0,1-15.48-9.79,41.25,41.25,0,0,1-9.69-15.09,54.91,54.91,0,0,1-3.33-19.49,52.3,52.3,0,0,1,3.14-17.95,44.7,44.7,0,0,1,9-15.11,44.07,44.07,0,0,1,14.44-10.36A46.2,46.2,0,0,1,225.55,92a44.47,44.47,0,0,1,19,3.8,39.16,39.16,0,0,1,13.78,10.55,45.86,45.86,0,0,1,8.46,16.15,70.89,70.89,0,0,1,2.84,20.62v4.56H206.17q.18,7.22,6.36,12.63t17,5.41q10.64,0,17.29-3.14a59.06,59.06,0,0,0,9.7-5.41Zm-24-44.27a16.27,16.27,0,0,0-1.13-5.8,17.37,17.37,0,0,0-3.43-5.41,18.28,18.28,0,0,0-5.7-4.08,19.08,19.08,0,0,0-8.17-1.61,20.44,20.44,0,0,0-8.36,1.61,18.92,18.92,0,0,0-6,4.08,17.62,17.62,0,0,0-3.61,5.41,14.89,14.89,0,0,0-1.24,5.8Z" transform="translate(-80 -57.37)"/><path class="cls-1" d="M278.37,95h26.22l.76,9.7a31.09,31.09,0,0,1,11.5-8.55,35.47,35.47,0,0,1,14.91-3.24q15.39,0,24.42,9.13t9,27v55.12H337.84V132.8q0-7.4-3.7-11.78t-10.36-4.36a18.75,18.75,0,0,0-8,1.6,17,17,0,0,0-5.7,4.29,17.89,17.89,0,0,0-3.42,6.17,24.18,24.18,0,0,0-1.14,7.5v47.89H278.37Z" transform="translate(-80 -57.37)"/><path class="cls-1" d="M377.74,57.37H407V81.88H377.74ZM378.69,95h27.36v89.12H378.69Z" transform="translate(-80 -57.37)"/><path class="cls-1" d="M504.11,174.41c-1,.63-2.54,1.69-4.57,3.14a42.92,42.92,0,0,1-7.88,4.28,73.23,73.23,0,0,1-11.5,3.7,64.53,64.53,0,0,1-15.2,1.62,56.55,56.55,0,0,1-20.52-3.52A44.36,44.36,0,0,1,429,173.84a41.25,41.25,0,0,1-9.69-15.09,54.91,54.91,0,0,1-3.33-19.49,52.53,52.53,0,0,1,3.13-17.95,44.88,44.88,0,0,1,9-15.11,44,44,0,0,1,14.44-10.36A46.2,46.2,0,0,1,461.92,92a44.5,44.5,0,0,1,19,3.8A39.16,39.16,0,0,1,494.7,106.3a45.68,45.68,0,0,1,8.45,16.15A70.55,70.55,0,0,1,506,143.07v4.56H442.54q.18,7.22,6.36,12.63t17,5.41q10.63,0,17.29-3.14a59.06,59.06,0,0,0,9.7-5.41Zm-23.95-44.27a16.07,16.07,0,0,0-1.14-5.8,17.16,17.16,0,0,0-3.42-5.41,18.4,18.4,0,0,0-5.7-4.08,19.08,19.08,0,0,0-8.17-1.61,20.44,20.44,0,0,0-8.36,1.61,18.81,18.81,0,0,0-6,4.08,17.62,17.62,0,0,0-3.61,5.41,14.89,14.89,0,0,0-1.24,5.8Z" transform="translate(-80 -57.37)"/><path class="cls-1" d="M110.22,204.79a13.15,13.15,0,0,1-2.87-.73,32.38,32.38,0,0,1-9.49-5.48l-.7-.58-.07.2-9.21,16.19a.62.62,0,0,0,.2.82c4.81,3.13,11.16,6.51,16.92,8a81.31,81.31,0,0,0,20.41,2.2c14.07,0,24.58-4.52,32.69-11.56s12.16-17.89,12.16-32.58V100.17a.59.59,0,0,0-.41-.57A121.33,121.33,0,0,0,152.31,95a112,112,0,0,0-21-1.9,61.06,61.06,0,0,0-21,3.42,46.46,46.46,0,0,0-16.15,9.79,44,44,0,0,0-10.45,15.2A50.35,50.35,0,0,0,80,141.16a51,51,0,0,0,2.76,17.11,39.32,39.32,0,0,0,7.89,13.48,33,33,0,0,0,12.47,8.44l.15.05c.08-.15.19-.29.28-.44a7.86,7.86,0,0,0,1-1.58s0,0,0,0a7.93,7.93,0,0,1,1.06-1,9.2,9.2,0,0,1,5-2.11,8.7,8.7,0,0,1,.89,0,.94.94,0,0,0,.93-.94c0-.49,0-1,0-1.46a.78.78,0,0,0-.23-.45,3.28,3.28,0,0,1-.86-3.4,2.26,2.26,0,0,1,.3-.65,3.31,3.31,0,0,1,5.74-.17,3.16,3.16,0,0,1-.21,3.85,1.86,1.86,0,0,0-.51,1.48c0,.36,0,.73,0,1.11a.61.61,0,0,0,.61.62,9,9,0,0,1,7.36,3.42.32.32,0,0,1,0,.09,3.88,3.88,0,0,1,.53.68,4.26,4.26,0,0,1,.82,1.39c0,.09.1.16.13.25a40.39,40.39,0,0,0,7.19-1.46c5-1.4,10-2.75,15-3.71a22,22,0,0,1,6.76-.43,11.29,11.29,0,0,1,1.75.19,6.8,6.8,0,0,1,2.13,1.75c1.46,1.55,2.94,3.56,2.62,3.59l-2.61.29a31.71,31.71,0,0,0-15.48,6l-.83.64c-2.44,1.84-2.54,3.36-4,6C129.92,209.21,110.22,204.79,110.22,204.79Zm33.05-60.39c0,5.83-1.51,10.09-4.56,12.82s-7.34,4.08-12.92,4.08q-8.92,0-13.58-5.69t-4.65-15.4A30.9,30.9,0,0,1,109,130.8a21,21,0,0,1,11.69-13.11,24.46,24.46,0,0,1,10.26-2,42.33,42.33,0,0,1,7,.48,34,34,0,0,1,4.9,1.27.61.61,0,0,1,.41.58Z" transform="translate(-80 -57.37)"/><path class="cls-1" d="M124.81,188.65" transform="translate(-80 -57.37)"/><path class="cls-1" d="M145.46,180" transform="translate(-80 -57.37)"/></svg>